<svg xmlns="http://www.w3.org/2000/svg" width="34" height="34" viewBox="0 0 34 34">
  <g id="Grupo_4083" data-name="Grupo 4083" transform="translate(-790 -256)">
    <circle id="Elipse_341" data-name="Elipse 341" cx="17" cy="17" r="17" transform="translate(790 256)" fill="#50cd89"/>
    <path id="Icon_awesome-check" data-name="Icon awesome-check" d="M6.726,19.054.29,12.618a.99.99,0,0,1,0-1.4l1.4-1.4a.99.99,0,0,1,1.4,0l4.335,4.335,9.286-9.286a.99.99,0,0,1,1.4,0l1.4,1.4a.99.99,0,0,1,0,1.4L8.126,19.054A.99.99,0,0,1,6.726,19.054Z" transform="translate(797 261.423)" fill="#fff"/>
  </g>
</svg>
