<svg xmlns="http://www.w3.org/2000/svg" width="16.151" height="17.741" viewBox="0 0 16.151 17.741">
  <g id="Icon_feather-package" data-name="Icon feather-package" transform="translate(-3.693 -2.228)">
    <path id="Trazado_801" data-name="Trazado 801" d="M18.519,10.507,11.25,6.315" transform="translate(-3.116 -1.529)" fill="none" stroke="#171717" stroke-linecap="round" stroke-linejoin="round" stroke-width="1.5"/>
    <path id="Trazado_802" data-name="Trazado 802" d="M19.038,14.309V7.847a1.615,1.615,0,0,0-.808-1.4L12.577,3.219a1.615,1.615,0,0,0-1.615,0L5.308,6.45a1.615,1.615,0,0,0-.808,1.4v6.461a1.615,1.615,0,0,0,.808,1.4l5.654,3.231a1.615,1.615,0,0,0,1.615,0l5.654-3.231a1.615,1.615,0,0,0,.808-1.4Z" fill="none" stroke="#171717" stroke-linecap="round" stroke-linejoin="round" stroke-width="1.5"/>
    <path id="Trazado_803" data-name="Trazado 803" d="M4.905,10.44l7.051,4.079,7.051-4.079" transform="translate(-0.187 -3.433)" fill="none" stroke="#171717" stroke-linecap="round" stroke-linejoin="round" stroke-width="1.5"/>
    <path id="Trazado_804" data-name="Trazado 804" d="M18,26.141V18" transform="translate(-6.231 -6.922)" fill="none" stroke="#171717" stroke-linecap="round" stroke-linejoin="round" stroke-width="1.5"/>
  </g>
</svg>
